HIERARCHY
ROOT pelvis
{
  OFFSET 0 100 0
  CHANNELS 6 Xposition Yposition Zposition Zrotation Xrotation Yrotation
  JOINT pelvis_right_femur
  {
    OFFSET -10.78128 -3.44521 -0.5502486
    CHANNELS 3 Zrotation Xrotation Yrotation
    JOINT right_femur_tibia
    {
      OFFSET -0.8047443 -44.0398 -0.1307829
      CHANNELS 3 Zrotation Xrotation Yrotation
      JOINT right_tibia_foot
      {
        OFFSET 3.006224 -47.83518 -5
        CHANNELS 3 Zrotation Xrotation Yrotation
        End Site
        {
          OFFSET 0 -5 15
        }
      }
    }
  }
  JOINT pelvis_left_femur
  {
    OFFSET 10.78128 -3.44521 -0.5502486
    CHANNELS 3 Zrotation Xrotation Yrotation
    JOINT left_femur_tibia
    {
      OFFSET 0.8047443 -44.0398 -0.1307829
      CHANNELS 3 Zrotation Xrotation Yrotation
      JOINT left_tibia_foot
      {
        OFFSET -4.370144 -48.10324 -4.275266
        CHANNELS 3 Zrotation Xrotation Yrotation
        End Site
        {
          OFFSET 0 -5 15
        }
      }
    }
  }
  JOINT pelvis_spine1
  {
    OFFSET 0 6.468898 -3.129235
    CHANNELS 3 Zrotation Xrotation Yrotation
    JOINT spine1
    {
      OFFSET 0 23.15396 4.99043
      CHANNELS 3 Zrotation Xrotation Yrotation
      JOINT spine2
      {
        OFFSET 0 20.79997 -5.064912
        CHANNELS 3 Zrotation Xrotation Yrotation
        JOINT neck
        {
          OFFSET 0 14.38658 9.616178
          CHANNELS 3 Zrotation Xrotation Yrotation
          End Site
          {
            OFFSET 0 20 0
          }
        }
      }
      JOINT right_manubrium
      {
        OFFSET -5.722621 16.35077 3.967754
        CHANNELS 3 Zrotation Xrotation Yrotation
        JOINT right_clavicle
        {
          OFFSET -13.16364 1.694482 -4.693211
          CHANNELS 3 Zrotation Xrotation Yrotation
          JOINT right_humerus
          {
            OFFSET -28.5034 -0.3100689 -2.792744
            CHANNELS 3 Zrotation Xrotation Yrotation
            JOINT right_radius
            {
              OFFSET -25.15693 0.02248979 -1.271978
              CHANNELS 3 Zrotation Xrotation Yrotation
              End Site
              {
                OFFSET -15 0 0
              }
            }
          }
        }
      }
      JOINT left_manubrium
      {
        OFFSET 5.722621 16.35077 3.967754
        CHANNELS 3 Zrotation Xrotation Yrotation
        JOINT left_clavicle
        {
          OFFSET 13.16364 1.694482 -4.693211
          CHANNELS 3 Zrotation Xrotation Yrotation
          JOINT left_humerus
          {
            OFFSET 29.39168 -1.063119 -2.237045
            CHANNELS 3 Zrotation Xrotation Yrotation
            JOINT left_radius
            {
              OFFSET 24.59957 -0.9528479 0.9047498
              CHANNELS 3 Zrotation Xrotation Yrotation
              End Site
              {
                OFFSET 15 -0 -0
              }
            }
          }
        }
      }
    }
  }
}
MOTION
Frames: 15
Frame Time: 0.0416666666667
32.1055 105.1135 239.4324 1.695587 -7.10468 3.871309 0.6332896 11.32015 7.775872 -6.891702e-07 36.81217 1.156463e-06 3.466687 -11.61617 -5.52359 -1.959791 -15.12762 -7.191303 4.440354e-07 19.29454 8.019956e-07 -5.303495 -8.712128 19.38802 -1.86109 -0.3992907 7.777438 -0.8325616 10.34522 -3.960229 2.460879 21.90392 4.623558 1.072098 -16.91577 7.871482 3.063181 -21.0309 10.66592 82.12629 26.41712 -7.701242 -1.524398e-07 9.476276e-07 23.43439 -24.20619 14.68963 13.7424 3.414684 -15.21995 -3.027747 -93.3119 23.13199 25.696 -5.163396e-07 3.979114e-07 -8.711545 -1.159065 7.175668 16.74247
33.49771 105.6723 245.3767 1.978847 -7.649657 4.218001 0.2233279 8.941362 7.961744 -8.383485e-07 43.53918 9.91454e-07 3.530011 -9.165696 -6.123234 -3.175487 -11.69886 -8.410378 -5.629568e-07 20.5141 1.50034e-06 -4.804007 -9.529858 19.53306 -2.186037 -0.4048513 7.238762 -0.915912 10.44184 -4.054746 2.535943 22.12623 4.830457 1.1952 -16.71138 8.109895 3.425296 -20.1274 10.57955 82.54754 26.45035 -8.62422 1.128229e-07 7.52031e-07 21.9785 -23.66016 14.38506 13.0381 3.295688 -15.17865 -3.25327 -92.36252 23.78072 24.20989 -5.18688e-07 3.249388e-07 -8.693248 -1.087902 7.331276 16.60802
34.84807 106.5269 251.049 2.290142 -8.219952 4.756144 -0.08490166 5.327722 8.126399 -1.22571e-06 49.60359 1.13139e-06 3.793304 -7.180384 -6.992689 -4.330564 -7.145838 -9.672301 -1.413804e-06 20.72369 2.187914e-06 -4.245858 -10.89345 19.67102 -2.524802 -0.401312 6.575613 -0.9352726 10.48737 -4.294268 2.663636 22.4183 5.010773 1.23698 -16.41933 8.451538 3.703431 -19.16429 10.44531 83.55398 26.31662 -10.03391 3.407145e-07 5.72285e-07 20.49708 -23.01248 14.18641 12.19361 3.334629 -15.33274 -3.524077 -91.41948 24.47688 22.19313 -6.058685e-07 2.333883e-07 -9.267573 -0.9870961 7.569654 16.3976
36.10057 107.4745 256.3019 2.578927 -8.633396 5.402772 -0.121279 0.7366538 8.1365 -1.544502e-06 52.93295 1.268193e-06 3.820846 -6.305864 -7.794458 -5.261895 -2.152962 -10.93053 -2.146887e-06 20.27791 2.513606e-06 -3.439974 -12.58775 19.87471 -2.828276 -0.3692848 5.851717 -0.8274859 10.40586 -4.639859 2.785975 22.6728 5.123381 1.230946 -16.10263 8.759129 3.830334 -18.16614 10.26805 84.38024 26.10723 -11.65748 5.112034e-07 4.103302e-07 18.88872 -21.82898 13.85608 10.98062 3.558356 -15.705 -3.773532 -90.02831 25.19086 19.60763 -7.524567e-07 1.16438e-07 -10.50607 -0.6932214 8.110417 15.75339
37.26252 108.329 261.3273 2.715183 -8.665452 6.079323 0.05227982 -4.069582 7.839159 -1.979527e-06 53.03653 1.652729e-06 3.691172 -5.981857 -8.42435 -5.753251 2.587577 -11.75606 -2.196696e-06 18.7098 2.642688e-06 -2.892837 -14.34831 19.78724 -2.996022 -0.3445514 5.138661 -0.618332 10.20833 -5.070494 2.87754 22.84823 5.195526 1.191252 -15.9375 9.014891 3.755483 -17.33199 10.06062 85.39311 25.88846 -13.31695 5.630897e-07 2.794505e-07 17.4264 -20.81678 13.61033 9.995438 3.9637 -16.28645 -3.963227 -88.75076 25.5951 17.01377 -8.80648e-07 2.341045e-08 -12.2546 -0.2210402 8.676813 14.91408
38.31207 108.8473 266.1562 2.780036 -8.3884 6.726184 0.3309597 -8.862458 7.240712 -2.226818e-06 49.59284 1.942724e-06 3.332006 -6.477703 -8.748007 -5.934442 6.590877 -12.23729 -1.772219e-06 16.38648 2.46474e-06 -2.375883 -16.17397 19.62352 -3.108655 -0.2717249 4.501473 -0.3327801 9.882444 -5.511821 2.915914 22.94904 5.23517 1.159749 -15.82619 9.155449 3.50844 -16.58833 9.840871 86.03819 25.74431 -14.81293 5.086144e-07 1.711589e-07 15.98616 -19.83672 13.2911 9.095485 4.55263 -17.04464 -4.081187 -87.18671 25.77702 14.1678 -9.792147e-07 -5.938245e-08 -14.56523 0.4384049 9.309138 13.74626
39.25425 108.9365 271.0247 2.670173 -7.807868 7.282374 0.7175855 -13.47779 6.391731 -2.260078e-06 43.48984 2.132367e-06 2.829705 -7.185102 -8.918005 -5.815661 10.09453 -12.27168 -9.433175e-07 14.12549 2.165305e-06 -2.361103 -17.81365 19.06847 -3.073825 -0.1654224 3.895341 0.01275923 9.443463 -5.971364 2.931609 23.01052 5.249602 1.127034 -15.84398 9.233656 3.129715 -15.87299 9.599688 86.80638 25.67448 -16.27823 3.930176e-07 8.097437e-08 14.50383 -19.12253 13.0743 8.46078 5.248974 -17.91612 -4.118203 -85.76445 25.69582 11.32208 -1.024204e-06 -1.155287e-07 -17.20419 1.215932 9.83614 12.50718
40.08837 108.5422 276.061 2.471811 -7.114582 7.729157 1.11228 -17.56687 5.423817 -2.052583e-06 35.85541 2.152881e-06 2.230349 -8.095926 -8.963008 -5.540637 12.88894 -12.01625 -1.390063e-08 12.41677 1.76053e-06 -2.714233 -19.20415 18.34116 -2.956251 -0.002906624 3.364105 0.363019 8.938208 -6.377494 2.942346 23.10753 5.24365 1.107232 -15.91764 9.264216 2.690766 -15.17491 9.366696 87.60415 25.68259 -17.60034 2.626766e-07 -3.311809e-09 13.01559 -18.62692 12.89653 8.014974 5.984876 -18.79845 -4.084501 -84.57443 25.49621 8.579302 -1.025876e-06 -1.603751e-07 -19.89878 2.021158 10.2759 11.28563
40.76532 107.6717 281.091 2.347571 -6.58096 8.065946 1.418098 -21.19234 4.501302 -1.619902e-06 28.45721 1.899961e-06 1.444592 -9.202992 -8.900878 -5.357503 15.18449 -11.89339 4.861698e-07 11.71741 1.203014e-06 -2.876987 -20.44068 17.89904 -2.892175 0.2270186 2.888575 0.6720201 8.431084 -6.668121 2.956198 23.28623 5.227946 1.131714 -15.9147 9.249843 2.296241 -14.39247 9.162268 87.99925 25.76555 -18.71233 1.882947e-07 -1.225196e-07 11.37234 -17.91975 12.4828 7.381425 6.675119 -19.58801 -4.030803 -83.23592 25.38316 5.745621 -1.019379e-06 -2.308967e-07 -22.36839 2.851515 10.82576 9.943917
41.30995 106.5299 286.2405 2.120398 -6.1452 8.274053 1.784049 -23.8936 3.788408 -1.08922e-06 22.50949 1.533965e-06 0.5966616 -9.898104 -8.898579 -5.130855 17.15821 -11.7749 6.486251e-07 12.46146 6.760896e-07 -3.447535 -21.06951 17.28446 -2.707682 0.4393629 2.43493 0.93331 7.94272 -6.861264 3.010975 23.48676 5.17051 1.13959 -15.97022 9.255652 1.969142 -13.61625 8.959085 88.5078 25.82253 -19.62024 2.018054e-07 -2.544614e-07 9.827687 -17.22087 12.11142 6.828904 7.170416 -20.11256 -3.930265 -82.39369 25.33592 3.57392 -9.960493e-07 -2.950909e-07 -24.02911 3.545668 11.28574 8.913066
41.75213 105.3457 291.5431 1.839998 -5.898525 8.382239 2.227824 -25.45105 3.44611 -5.223193e-07 19.05213 1.061158e-06 -0.2598775 -10.15383 -8.95624 -4.911369 18.71393 -11.79853 3.625898e-07 14.5284 2.264155e-07 -4.174738 -21.02142 16.66213 -2.436441 0.5837091 2.044952 1.122502 7.555277 -6.943372 3.097271 23.64704 5.065766 1.122216 -16.05712 9.273818 1.757275 -12.94963 8.781123 88.9178 25.80963 -20.21523 3.098146e-07 -3.828012e-07 8.580105 -16.42731 11.76564 6.293961 7.381582 -20.29421 -3.818547 -81.98541 25.40082 2.328971 -9.775042e-07 -3.501644e-07 -24.61086 4.0333 11.68048 8.252574
42.18059 104.4628 297.2247 1.452923 -5.85686 8.441702 2.776962 -25.69005 3.535532 4.385007e-08 19.23367 5.157153e-07 -0.9741186 -9.37042 -9.179259 -4.690423 20.06189 -11.8749 -3.075439e-07 18.18513 8.49656e-08 -5.368481 -20.12121 15.82062 -2.019276 0.6137955 1.696946 1.217322 7.331384 -6.939636 3.236391 23.7868 4.928867 1.065983 -16.25669 9.362471 1.695977 -12.43923 8.632702 89.74559 25.66034 -20.60263 5.32974e-07 -5.061387e-07 7.727683 -15.82117 11.65555 5.986075 7.231764 -20.09572 -3.721753 -82.47604 25.58936 2.389805 -9.467017e-07 -3.764497e-07 -23.87535 4.213659 11.87535 8.240523
42.59988 104.0637 303.1473 1.136401 -6.12809 8.453606 3.419032 -24.59197 3.979447 8.098413e-07 21.40811 -3.347291e-07 -1.756586 -8.538715 -9.3442 -4.513313 20.47267 -12.06105 -1.614661e-06 23.59007 -4.680738e-08 -6.315954 -18.54213 15.31719 -1.578023 0.6021907 1.530264 1.228146 7.310456 -6.802148 3.378515 23.89821 4.73462 1.0124 -16.41183 9.389126 1.734074 -12.11799 8.578917 90.1903 25.4472 -20.63136 8.401171e-07 -6.066898e-07 7.198552 -15.05968 11.47958 5.565873 6.805205 -19.66103 -3.673533 -83.18489 25.83529 3.281607 -9.312201e-07 -4.001536e-07 -22.24756 4.246525 12.10098 8.402965
43.01836 104.2435 309.2659 0.8733602 -6.623774 8.357994 4.133786 -21.93808 4.585751 1.908116e-06 23.84319 -1.537594e-06 -2.615107 -8.13244 -9.39067 -4.278186 19.38663 -12.1125 -3.378986e-06 30.74191 -1.885864e-07 -7.254533 -16.34099 15.15551 -1.095088 0.6316184 1.621438 1.167924 7.423788 -6.512359 3.531829 24.11332 4.483612 0.9722842 -16.56407 9.35366 1.801898 -12.03356 8.64136 90.55984 25.27292 -20.30237 1.199439e-06 -6.753284e-07 7.041047 -14.42053 11.31548 5.221724 6.226246 -19.09799 -3.616583 -84.50706 26.15451 4.963567 -9.078992e-07 -4.186325e-07 -20.0548 4.137354 12.32946 8.768076
43.35564 104.8255 315.1016 0.9669487 -7.499412 8.115819 4.568567 -18.00775 5.126128 3.247879e-06 25.58047 -3.066192e-06 -3.559566 -9.033613 -9.14303 -4.185831 16.27077 -12.22382 -5.579737e-06 37.99438 -3.921648e-07 -7.285359 -14.31403 16.05048 -0.8759231 0.8071572 2.066245 0.9925465 7.674744 -6.000257 3.654727 24.51803 4.218598 1.008901 -16.46626 9.188755 1.856567 -12.22092 8.859766 90.10328 25.2142 -19.39122 1.53679e-06 -7.314028e-07 7.249348 -13.81103 10.79893 4.747935 5.691741 -18.5583 -3.600337 -85.71382 26.56737 6.655216 -9.041159e-07 -4.75699e-07 -17.8682 4.022177 12.78932 8.858133
